<svg xmlns="http://www.w3.org/2000/svg" viewBox="0 0 96 96">
  <defs>
    <linearGradient id="bgGrad" x1="0%" y1="0%" x2="100%" y2="100%">
      <stop offset="0%" style="stop-color:#2B4FE8"/>
      <stop offset="100%" style="stop-color:#1E3CB0"/>
    </linearGradient>
  </defs>
  
  <!-- Background Circle -->
  <circle cx="48" cy="48" r="44" fill="url(#bgGrad)"/>
  
  <!-- Calculator Body -->
  <rect x="24" y="20" width="48" height="56" rx="6" fill="white"/>
  
  <!-- Display -->
  <rect x="28" y="24" width="40" height="14" rx="3" fill="#1E3CB0"/>
  
  <!-- Calculator Buttons Grid -->
  <g fill="#E5E7EB">
    <rect x="28" y="42" width="10" height="8" rx="2"/>
    <rect x="43" y="42" width="10" height="8" rx="2"/>
    <rect x="58" y="42" width="10" height="8" rx="2"/>
    
    <rect x="28" y="54" width="10" height="8" rx="2"/>
    <rect x="43" y="54" width="10" height="8" rx="2"/>
    <rect x="58" y="54" width="10" height="8" rx="2"/>
    
    <rect x="28" y="66" width="10" height="8" rx="2"/>
    <rect x="43" y="66" width="10" height="8" rx="2"/>
  </g>
  
  <!-- Equals Button (highlighted) -->
  <rect x="58" y="66" width="10" height="8" rx="2" fill="#22C55E"/>
</svg>

